<svg xmlns="http://www.w3.org/2000/svg" width="960" height="500" viewBox="0 0 960 500" role="img" aria-label="Phase time share for slowest completed schemas"><rect width="100%" height="100%" fill="#FFFFFF"/><text x="24.00" y="30.00" font-family="Inter, Arial, sans-serif" font-size="17" fill="#1F2933" text-anchor="start" font-weight="700">Phase time share for slowest completed schemas</text><rect x="805" y="48" width="12" height="12" fill="#2F6BFF"/><text x="822.00" y="59.00" font-family="Inter, Arial, sans-serif" font-size="11" fill="#1F2933" text-anchor="start" font-weight="400">compile</text><rect x="805" y="67" width="12" height="12" fill="#008C7D"/><text x="822.00" y="78.00" font-family="Inter, Arial, sans-serif" font-size="11" fill="#1F2933" text-anchor="start" font-weight="400">validation</text><rect x="805" y="86" width="12" height="12" fill="#D96C06"/><text x="822.00" y="97.00" font-family="Inter, Arial, sans-serif" font-size="11" fill="#1F2933" text-anchor="start" font-weight="400">mask</text><rect x="805" y="105" width="12" height="12" fill="#7557B8"/><text x="822.00" y="116.00" font-family="Inter, Arial, sans-serif" font-size="11" fill="#1F2933" text-anchor="start" font-weight="400">commit</text><text x="250.00" y="76.00" font-family="Inter, Arial, sans-serif" font-size="10" fill="#1F2933" text-anchor="end" font-weight="400">Kubernetes---kb_996_Normalized.json</text><rect x="260.00" y="60" width="493.97" height="20" fill="#2F6BFF"/><rect x="753.97" y="60" width="13.70" height="20" fill="#008C7D"/><rect x="767.67" y="60" width="11.32" height="20" fill="#D96C06"/><rect x="778.99" y="60" width="1.01" height="20" fill="#7557B8"/><text x="788.00" y="75.00" font-family="Inter, Arial, sans-serif" font-size="10" fill="#1F2933" text-anchor="start" font-weight="400">0.059s</text><text x="250.00" y="110.00" font-family="Inter, Arial, sans-serif" font-size="10" fill="#1F2933" text-anchor="end" font-weight="400">Kubernetes---kb_794_Normalized.json</text><rect x="260.00" y="94" width="496.87" height="20" fill="#2F6BFF"/><rect x="756.87" y="94" width="12.33" height="20" fill="#008C7D"/><rect x="769.20" y="94" width="10.04" height="20" fill="#D96C06"/><rect x="779.24" y="94" width="0.76" height="20" fill="#7557B8"/><text x="788.00" y="109.00" font-family="Inter, Arial, sans-serif" font-size="10" fill="#1F2933" text-anchor="start" font-weight="400">0.0563s</text><text x="250.00" y="144.00" font-family="Inter, Arial, sans-serif" font-size="10" fill="#1F2933" text-anchor="end" font-weight="400">Kubernetes---kb_740_Normalized.json</text><rect x="260.00" y="128" width="457.64" height="20" fill="#2F6BFF"/><rect x="717.64" y="128" width="32.08" height="20" fill="#008C7D"/><rect x="749.72" y="128" width="28.14" height="20" fill="#D96C06"/><rect x="777.86" y="128" width="2.14" height="20" fill="#7557B8"/><text x="788.00" y="143.00" font-family="Inter, Arial, sans-serif" font-size="10" fill="#1F2933" text-anchor="start" font-weight="400">0.0603s</text><text x="250.00" y="178.00" font-family="Inter, Arial, sans-serif" font-size="10" fill="#1F2933" text-anchor="end" font-weight="400">Kubernetes---kb_741_Normalized.json</text><rect x="260.00" y="162" width="464.96" height="20" fill="#2F6BFF"/><rect x="724.96" y="162" width="28.25" height="20" fill="#008C7D"/><rect x="753.20" y="162" width="24.86" height="20" fill="#D96C06"/><rect x="778.06" y="162" width="1.94" height="20" fill="#7557B8"/><text x="788.00" y="177.00" font-family="Inter, Arial, sans-serif" font-size="10" fill="#1F2933" text-anchor="start" font-weight="400">0.0537s</text><text x="250.00" y="212.00" font-family="Inter, Arial, sans-serif" font-size="10" fill="#1F2933" text-anchor="end" font-weight="400">Kubernetes---kb_821_Normalized.json</text><rect x="260.00" y="196" width="445.10" height="20" fill="#2F6BFF"/><rect x="705.10" y="196" width="38.53" height="20" fill="#008C7D"/><rect x="743.63" y="196" width="34.34" height="20" fill="#D96C06"/><rect x="777.97" y="196" width="2.03" height="20" fill="#7557B8"/><text x="788.00" y="211.00" font-family="Inter, Arial, sans-serif" font-size="10" fill="#1F2933" text-anchor="start" font-weight="400">0.0542s</text><text x="250.00" y="246.00" font-family="Inter, Arial, sans-serif" font-size="10" fill="#1F2933" text-anchor="end" font-weight="400">Kubernetes---kb_228_Normalized.json</text><rect x="260.00" y="230" width="494.49" height="20" fill="#2F6BFF"/><rect x="754.49" y="230" width="13.90" height="20" fill="#008C7D"/><rect x="768.39" y="230" width="10.58" height="20" fill="#D96C06"/><rect x="778.98" y="230" width="1.02" height="20" fill="#7557B8"/><text x="788.00" y="245.00" font-family="Inter, Arial, sans-serif" font-size="10" fill="#1F2933" text-anchor="start" font-weight="400">0.0457s</text><text x="250.00" y="280.00" font-family="Inter, Arial, sans-serif" font-size="10" fill="#1F2933" text-anchor="end" font-weight="400">Kubernetes---kb_1011_Normalized.json</text><rect x="260.00" y="264" width="419.19" height="20" fill="#2F6BFF"/><rect x="679.19" y="264" width="51.93" height="20" fill="#008C7D"/><rect x="731.11" y="264" width="45.13" height="20" fill="#D96C06"/><rect x="776.24" y="264" width="3.76" height="20" fill="#7557B8"/><text x="788.00" y="279.00" font-family="Inter, Arial, sans-serif" font-size="10" fill="#1F2933" text-anchor="start" font-weight="400">0.0513s</text><text x="250.00" y="314.00" font-family="Inter, Arial, sans-serif" font-size="10" fill="#1F2933" text-anchor="end" font-weight="400">Kubernetes---kb_743_Normalized.json</text><rect x="260.00" y="298" width="446.10" height="20" fill="#2F6BFF"/><rect x="706.10" y="298" width="38.15" height="20" fill="#008C7D"/><rect x="744.25" y="298" width="33.20" height="20" fill="#D96C06"/><rect x="777.45" y="298" width="2.55" height="20" fill="#7557B8"/><text x="788.00" y="313.00" font-family="Inter, Arial, sans-serif" font-size="10" fill="#1F2933" text-anchor="start" font-weight="400">0.0479s</text><text x="250.00" y="348.00" font-family="Inter, Arial, sans-serif" font-size="10" fill="#1F2933" text-anchor="end" font-weight="400">Kubernetes---kb_484_Normalized.json</text><rect x="260.00" y="332" width="444.83" height="20" fill="#2F6BFF"/><rect x="704.83" y="332" width="38.73" height="20" fill="#008C7D"/><rect x="743.56" y="332" width="33.58" height="20" fill="#D96C06"/><rect x="777.15" y="332" width="2.85" height="20" fill="#7557B8"/><text x="788.00" y="347.00" font-family="Inter, Arial, sans-serif" font-size="10" fill="#1F2933" text-anchor="start" font-weight="400">0.0459s</text><text x="250.00" y="382.00" font-family="Inter, Arial, sans-serif" font-size="10" fill="#1F2933" text-anchor="end" font-weight="400">Kubernetes---kb_738_Normalized.json</text><rect x="260.00" y="366" width="495.61" height="20" fill="#2F6BFF"/><rect x="755.61" y="366" width="12.62" height="20" fill="#008C7D"/><rect x="768.22" y="366" width="11.09" height="20" fill="#D96C06"/><rect x="779.31" y="366" width="0.69" height="20" fill="#7557B8"/><text x="788.00" y="381.00" font-family="Inter, Arial, sans-serif" font-size="10" fill="#1F2933" text-anchor="start" font-weight="400">0.041s</text><text x="250.00" y="416.00" font-family="Inter, Arial, sans-serif" font-size="10" fill="#1F2933" text-anchor="end" font-weight="400">Kubernetes---kb_739_Normalized.json</text><rect x="260.00" y="400" width="466.89" height="20" fill="#2F6BFF"/><rect x="726.89" y="400" width="27.06" height="20" fill="#008C7D"/><rect x="753.96" y="400" width="23.97" height="20" fill="#D96C06"/><rect x="777.93" y="400" width="2.07" height="20" fill="#7557B8"/><text x="788.00" y="415.00" font-family="Inter, Arial, sans-serif" font-size="10" fill="#1F2933" text-anchor="start" font-weight="400">0.0415s</text><text x="250.00" y="450.00" font-family="Inter, Arial, sans-serif" font-size="10" fill="#1F2933" text-anchor="end" font-weight="400">Kubernetes---kb_742_Normalized.json</text><rect x="260.00" y="434" width="433.90" height="20" fill="#2F6BFF"/><rect x="693.90" y="434" width="43.93" height="20" fill="#008C7D"/><rect x="737.84" y="434" width="39.09" height="20" fill="#D96C06"/><rect x="776.93" y="434" width="3.07" height="20" fill="#7557B8"/><text x="788.00" y="449.00" font-family="Inter, Arial, sans-serif" font-size="10" fill="#1F2933" text-anchor="start" font-weight="400">0.043s</text></svg>
